HIERARCHY
ROOT root
{
	OFFSET	0	13.1	24.9
	CHANNELS 6  Xposition Yposition Zposition Xrotation Yrotation Zrotation
	JOINT spine_1
	{
		OFFSET	0	9.99999	0
		CHANNELS 3  Xrotation Yrotation Zrotation
		JOINT spine_2
		{
			OFFSET	0	112	-10
			CHANNELS 3  Xrotation Yrotation Zrotation
			JOINT spine_3
			{
				OFFSET	0	206.5	19.3
				CHANNELS 3  Xrotation Yrotation Zrotation
				JOINT spine_4
				{
					OFFSET	0	110.4	14.6
					CHANNELS 3  Xrotation Yrotation Zrotation
					JOINT neck_1
					{
						OFFSET	0	71.8	-50.3
						CHANNELS 3  Xrotation Yrotation Zrotation
						JOINT neck_2
						{
							OFFSET	0	86.2	-25.8
							CHANNELS 3  Xrotation Yrotation Zrotation
							JOINT head_ee
							{
								OFFSET	0	179.8	-8.7
								CHANNELS 3  Xrotation Yrotation Zrotation
								End Site
								{
									OFFSET	1	0	0
								}
							}
						}
					}
					JOINT left_clavicle
					{
						OFFSET	-43.2	22.4	-70.8
						CHANNELS 3  Xrotation Yrotation Zrotation
						JOINT left_shoulder
						{
							OFFSET	-93.9	-5.79999	48.7
							CHANNELS 3  Xrotation Yrotation Zrotation
							JOINT left_elbow
							{
								OFFSET	-291.4	-30.8	15.2
								CHANNELS 3  Xrotation Yrotation Zrotation
								JOINT left_lowarm_twist
								{
									OFFSET	-110.7	-3.89999	13.6
									CHANNELS 3  Xrotation Yrotation Zrotation
									JOINT left_hand
									{
										OFFSET	-110.7	-3.89999	13.6
										CHANNELS 3  Xrotation Yrotation Zrotation
										JOINT left_ee
										{
											OFFSET	-80.8	-5.10001	12.1
											CHANNELS 3  Xrotation Yrotation Zrotation
											End Site
											{
												OFFSET	1	0	0
											}
										}
									}
								}
							}
						}
					}
					JOINT right_clavicle
					{
						OFFSET	43.2	22.4	-70.8
						CHANNELS 3  Xrotation Yrotation Zrotation
						JOINT right_shoulder
						{
							OFFSET	93.9	-5.79999	48.7
							CHANNELS 3  Xrotation Yrotation Zrotation
							JOINT right_elbow
							{
								OFFSET	291.4	-30.8	15.2
								CHANNELS 3  Xrotation Yrotation Zrotation
								JOINT right_lowarm_twist
								{
									OFFSET	110.7	-3.89999	13.6
									CHANNELS 3  Xrotation Yrotation Zrotation
									JOINT right_hand
									{
										OFFSET	110.7	-3.89999	13.6
										CHANNELS 3  Xrotation Yrotation Zrotation
										JOINT right_ee
										{
											OFFSET	80.8	-5.10001	12.1
											CHANNELS 3  Xrotation Yrotation Zrotation
											End Site
											{
												OFFSET	1	0	0
											}
										}
									}
								}
							}
						}
					}
				}
			}
		}
	}
	JOINT left_hip
	{
		OFFSET	-82.8	-127.5	0.300001
		CHANNELS 3  Xrotation Yrotation Zrotation
		JOINT left_knee
		{
			OFFSET	-28.2	-396.7	2.2
			CHANNELS 3  Xrotation Yrotation Zrotation
			JOINT left_ankle
			{
				OFFSET	-11.7	-411.3	35.4
				CHANNELS 3  Xrotation Yrotation Zrotation
				JOINT left_toes
				{
					OFFSET	0	-60	-88.6
					CHANNELS 3  Xrotation Yrotation Zrotation
					JOINT left_foot_ee
					{
						OFFSET	-22.5	-16.5	-42.2
						CHANNELS 3  Xrotation Yrotation Zrotation
						End Site
						{
							OFFSET	1	0	0
						}
					}
				}
			}
		}
	}
	JOINT right_hip
	{
		OFFSET	82.8	-127.5	0.300001
		CHANNELS 3  Xrotation Yrotation Zrotation
		JOINT right_knee
		{
			OFFSET	28.2	-396.7	2.2
			CHANNELS 3  Xrotation Yrotation Zrotation
			JOINT right_ankle
			{
				OFFSET	11.7	-411.3	35.4
				CHANNELS 3  Xrotation Yrotation Zrotation
				JOINT right_toes
				{
					OFFSET	0	-60	-88.6
					CHANNELS 3  Xrotation Yrotation Zrotation
					JOINT right_foot_ee
					{
						OFFSET	22.5	-16.5	-42.2
						CHANNELS 3  Xrotation Yrotation Zrotation
						End Site
						{
							OFFSET	1	0	0
						}
					}
				}
			}
		}
	}
}
MOTION
Frames: 12
Frame Time: 0.02
1125.2751804 736.429 -1772.49175667 -5.24250318587 28.637121706 1.05829682812 4.01409 0.44337 0.864822 4.01442 0.387443 0.89128 4.02026 0.257832 0.937021 4.01926 0.402576 0.884548 -10.6831 15.4168 -2.73965 -11.0787 30.9184 1.54946 -0.0 0.0 -0.0 -0.758758 22.6324 1.56735 -37.1575 -12.8488 65.2716 0.958699 -25.4031 0.216085 15.8696 0.283669 -2.00089 0.895649 6.05273 8.4133 -0.0 0.0 -0.0 8.16781 14.0747 -15.7112 -10.7959 22.249 -65.288 1.20664 30.8671 -0.333136 30.8645 -0.0388281 3.89523 0.0890089 -11.0448 -5.13356 0.0 0.0 0.0 15.796 9.612 -5.71701 -48.4179 -1.08719 7.13371 13.1721 26.6366 -1.95685 -2.33185 0.0 0.0 -0.0 0.0 -0.0 10.1005 26.5747 -2.87008 -17.0695 -0.319015 -2.59039 29.8605 -8.85983 3.87743 -5.22562 0.0 0.0 0.0 0.0 0.0 
1110.96309297 737.196 -1782.27863932 -4.51438181504 29.8757369189 0.635812046243 4.013 0.196558 1.16716 4.01375 0.121895 1.1773 4.01582 -0.0455501 1.18272 4.01389 0.141797 1.17507 -12.5269 13.9242 -3.66367 -13.0272 28.7567 0.731315 -0.0 0.0 -0.0 -0.852098 22.6134 1.43485 -37.3341 -13.7974 66.2853 0.811072 -21.8892 0.156845 14.9928 0.282551 -1.8889 0.934414 8.96437 9.79107 -0.0 0.0 -0.0 8.30701 15.4333 -15.9439 -10.4356 22.3691 -64.4821 1.45366 35.7556 -0.468921 30.446 -0.0523561 3.84349 0.577219 -7.21451 -6.77353 0.0 0.0 0.0 19.5526 11.062 -7.58045 -49.5579 -1.18388 7.2802 14.7083 25.9261 -2.16438 -2.6539 0.0 0.0 -0.0 0.0 -0.0 6.72572 28.9455 -2.17679 -15.524 -0.322087 -2.35328 30.2956 -9.73093 3.92739 -5.82755 0.0 0.0 0.0 0.0 0.0 
1066.95323748 733.449 -1798.95062151 -4.1723192331 32.5104265276 0.239512229761 4.13242 0.0617298 1.53731 4.13373 -0.0362066 1.53812 4.13195 -0.250002 1.51811 4.12873 -0.00713733 1.53853 -12.3638 11.3992 -5.36114 -12.6587 25.0354 -1.76424 -0.0 0.0 -0.0 -0.709294 22.85 1.66457 -39.3241 -14.8727 67.9067 0.603947 -16.6561 0.0884093 14.8005 0.282077 -1.86435 0.75896 12.5903 10.0171 -0.0 0.0 -0.0 8.38414 15.418 -16.1132 -9.09665 22.4815 -62.768 1.63018 38.9194 -0.57602 29.949 -0.0679286 3.78193 0.344828 1.48841 -1.68264 0.0 0.0 0.0 22.9508 11.5601 -7.89323 -48.9621 -1.13299 7.20388 15.7208 23.8903 -2.27944 -3.43726 0.0 0.0 -0.0 0.0 -0.0 2.29166 30.1041 -0.0507509 -13.6202 -0.317079 -2.06124 29.8522 -10.2905 3.8823 -7.58235 0.0 0.0 0.0 0.0 0.0 
1041.64505778 733.058 -1802.16493077 -4.52014641081 34.570841632 0.561272367875 4.2619 0.189367 1.67766 4.26346 0.0822444 1.68631 4.26486 -0.149397 1.68169 4.26093 0.118031 1.68418 -9.84928 8.90008 -6.98862 -9.8285 21.4609 -4.62637 -0.0 0.0 -0.0 -0.444139 22.9589 2.04534 -40.2472 -16.1179 67.8629 0.546228 -15.141 0.0725966 14.319 0.280528 -1.80287 0.731817 15.2923 10.8379 -0.0 0.0 -0.0 8.41468 15.6691 -16.1662 -9.48208 22.3216 -61.8895 1.69679 40.045 -0.618375 29.3432 -0.0861863 3.7067 -0.254995 4.9797 3.83103 0.0 0.0 0.0 24.9832 14.6133 -9.47919 -44.4996 -0.777556 6.61637 14.3208 22.9244 -2.07713 -5.64629 0.0 0.0 -0.0 0.0 -0.0 -1.28851 32.0485 1.66025 -10.5541 -0.288631 -1.59171 35.0631 -10.1271 4.41844 -9.85287 0.0 0.0 0.0 0.0 0.0 
1014.75241862 726.231 -1808.08934185 -4.19276505717 35.7445296784 0.137970710181 4.04006 0.275695 1.79018 4.04182 0.161242 1.80409 4.04586 -0.0941534 1.80883 4.04134 0.192651 1.801 -10.4466 7.1995 -8.53891 -10.3526 19.2693 -6.48031 -0.0 0.0 -0.0 -0.56997 23.4482 1.93303 -42.131 -16.9869 67.9547 0.575714 -15.9179 0.0804911 14.0701 0.279524 -1.7711 0.902399 16.4441 12.3247 -0.0 0.0 -0.0 8.4343 15.638 -16.2109 -8.724 22.4218 -60.3702 1.7813 41.4216 -0.673528 28.4046 -0.112902 3.58978 -0.55819 7.98622 7.17731 0.0 0.0 0.0 27.2844 16.9208 -10.2674 -40.21 -0.480178 6.02765 13.7612 21.9944 -1.99138 -7.1492 0.0 0.0 -0.0 0.0 -0.0 -4.68532 33.3089 3.41567 -8.51666 -0.25585 -1.28081 38.0607 -12.8494 4.72761 -11.6561 0.0 0.0 0.0 0.0 0.0 
1000.66651068 723.984 -1816.95208155 -5.02188713245 35.5140012305 0.875630525956 4.10447 0.271466 1.78185 4.10623 0.15755 1.79551 4.11009 -0.0945839 1.79992 4.10562 0.19082 1.79228 -10.251 5.67047 -8.24074 -10.129 16.2126 -6.61526 -0.0 0.0 -0.0 -0.0369953 23.4575 2.66322 -41.731 -17.4319 68.408 0.455122 -12.7053 0.0506698 14.2207 0.280148 -1.79032 0.84165 18.613 12.7005 -0.0 0.0 -0.0 8.53677 15.7303 -16.4301 -8.43692 22.6124 -59.6694 1.84216 42.378 -0.714172 27.5159 -0.136428 3.47869 -0.671643 12.3771 9.8315 0.0 0.0 0.0 28.7756 20.0711 -10.9759 -28.6929 0.0919081 4.35655 9.88415 19.0951 -1.43275 -8.26291 0.0 0.0 -0.0 0.0 -0.0 -5.84287 34.7199 3.8972 -6.53959 -0.213488 -0.980386 41.1015 -11.4859 4.98515 -12.7499 0.0 0.0 0.0 0.0 0.0 
992.284518158 719.153 -1825.44032123 -5.98928510633 35.547179083 1.34587105084 4.40947 0.312249 1.90565 4.41147 0.190378 1.92165 4.41647 -0.0693497 1.92981 4.41135 0.236241 1.91655 -12.5669 4.26704 -8.54542 -12.4614 13.5272 -6.97063 -0.0 0.0 -0.0 -0.23088 23.5917 2.41356 -42.4417 -18.9484 67.8337 0.49897 -13.884 0.0607536 14.7931 0.282057 -1.8634 1.10342 19.4687 14.6115 -0.0 0.0 -0.0 8.50525 14.4327 -16.4284 -8.16404 22.7275 -59.0497 1.93178 43.735 -0.77536 25.1058 -0.191519 3.17577 -0.663721 15.7929 11.2227 0.0 0.0 0.0 27.6711 22.773 -10.268 -21.3347 0.277389 3.24334 12.2327 14.1593 -1.73578 -11.1452 0.0 0.0 -0.0 0.0 -0.0 -6.57739 35.7186 4.22495 -4.98956 -0.173038 -0.745957 41.7418 -15.0953 5.08728 -12.7749 0.0 0.0 0.0 0.0 0.0 
983.308930064 719.153 -1815.45003269 -6.10450510373 37.0284549792 1.54053506308 4.40947 0.312249 1.90565 4.41147 0.190378 1.92165 4.41647 -0.0693497 1.92981 4.41135 0.236241 1.91655 -12.5669 4.26704 -8.54542 -12.4614 13.5272 -6.97063 -0.0 0.0 -0.0 -0.23088 23.5917 2.41356 -42.4417 -18.9484 67.8337 0.49897 -13.884 0.0607536 14.7931 0.282057 -1.8634 1.10342 19.4687 14.6115 -0.0 0.0 -0.0 8.50525 14.4327 -16.4284 -8.16404 22.7275 -59.0497 1.93178 43.735 -0.77536 25.1058 -0.191519 3.17577 -0.663721 15.7929 11.2227 0.0 0.0 0.0 27.6711 22.773 -10.268 -21.3347 0.277389 3.24334 12.2327 14.1593 -1.73578 -11.1452 0.0 0.0 -0.0 0.0 -0.0 -6.57739 35.7186 4.22495 -4.98956 -0.173038 -0.745957 41.7418 -15.0953 5.08728 -12.7749 0.0 0.0 0.0 0.0 0.0 
965.520435054 720.339 -1828.98072948 -5.46055341408 34.7319493023 1.45905368206 4.40016 0.597586 1.96493 4.40218 0.471367 1.99896 4.41722 0.198917 2.04411 4.41176 0.519186 1.98708 -12.3878 3.02355 -6.31874 -12.3259 9.76866 -5.20035 -0.0 0.0 -0.0 -0.479772 24.3051 2.16179 -43.1329 -19.4083 67.5675 0.546689 -15.1532 0.0727171 15.4159 0.283304 -1.94294 1.49136 18.5575 16.7495 -0.0 0.0 -0.0 8.49598 13.5444 -16.4495 -8.59766 22.7113 -58.8022 1.9759 44.3813 -0.806038 23.4153 -0.222533 2.96207 -0.786082 15.5296 11.9481 0.0 0.0 0.0 31.053 22.3657 -11.3648 -11.4346 0.299373 1.72639 13.5989 10.5578 -1.91015 -13.5147 0.0 0.0 -0.0 0.0 -0.0 -8.59567 35.8071 5.10041 -5.29183 -0.181424 -0.791588 41.0021 -18.7449 5.09139 -13.5453 0.0 0.0 0.0 0.0 0.0 
951.826659926 714.66 -1838.49989286 -5.70881139785 35.330426277 2.19671957691 4.45964 0.544934 1.78163 4.4613 0.430479 1.81268 4.47374 0.185193 1.85385 4.46925 0.475603 1.80137 -13.5294 1.87144 -6.77636 -13.4403 7.76081 -5.89077 -0.0 0.0 -0.0 -0.616544 24.2431 1.97029 -43.224 -20.6999 67.2806 0.561956 -15.5561 0.0767596 15.7793 0.283633 -1.98935 1.69185 19.1615 18.2105 -0.0 0.0 -0.0 8.4694 12.9062 -16.419 -8.60529 22.6927 -58.1644 2.02097 45.0271 -0.837745 22.1197 -0.242026 2.79773 -0.872963 16.1411 12.7994 0.0 0.0 0.0 31.2068 22.5876 -10.4669 -3.98522 0.143446 0.594665 15.0757 6.84524 -2.10271 -13.6366 0.0 0.0 -0.0 0.0 -0.0 -8.91521 35.53 4.4911 -5.6531 -0.191131 -0.846181 42.4992 -19.4864 5.24042 -12.1586 0.0 0.0 0.0 0.0 0.0 
945.419202051 714.66 -1830.9531842 -5.78264931725 36.3464477932 2.32282511012 4.45964 0.544934 1.78163 4.4613 0.430479 1.81268 4.47374 0.185193 1.85385 4.46925 0.475603 1.80137 -13.5294 1.87144 -6.77636 -13.4403 7.76081 -5.89077 -0.0 0.0 -0.0 -0.616544 24.2431 1.97029 -43.224 -20.6999 67.2806 0.561956 -15.5561 0.0767596 15.7793 0.283633 -1.98935 1.69185 19.1615 18.2105 -0.0 0.0 -0.0 8.4694 12.9062 -16.419 -8.60529 22.6927 -58.1644 2.02097 45.0271 -0.837745 22.1197 -0.242026 2.79773 -0.872963 16.1411 12.7994 0.0 0.0 0.0 31.2068 22.5876 -10.4669 -3.98522 0.143446 0.594665 15.0757 6.84524 -2.10271 -13.6366 0.0 0.0 -0.0 0.0 -0.0 -8.91521 35.53 4.4911 -5.6531 -0.191131 -0.846181 42.4992 -19.4864 5.24042 -12.1586 0.0 0.0 0.0 0.0 0.0 
940.390218472 714.66 -1824.83374274 -5.84445313147 37.1592472615 2.42611041018 4.45964 0.544934 1.78163 4.4613 0.430479 1.81268 4.47374 0.185193 1.85385 4.46925 0.475603 1.80137 -13.5294 1.87144 -6.77636 -13.4403 7.76081 -5.89077 -0.0 0.0 -0.0 -0.616544 24.2431 1.97029 -43.224 -20.6999 67.2806 0.561956 -15.5561 0.0767596 15.7793 0.283633 -1.98935 1.69185 19.1615 18.2105 -0.0 0.0 -0.0 8.4694 12.9062 -16.419 -8.60529 22.6927 -58.1644 2.02097 45.0271 -0.837745 22.1197 -0.242026 2.79773 -0.872963 16.1411 12.7994 0.0 0.0 0.0 31.2068 22.5876 -10.4669 -3.98522 0.143446 0.594665 15.0757 6.84524 -2.10271 -13.6366 0.0 0.0 -0.0 0.0 -0.0 -8.91521 35.53 4.4911 -5.6531 -0.191131 -0.846181 42.4992 -19.4864 5.24042 -12.1586 0.0 0.0 0.0 0.0 0.0 
